<svg version="1.0" xmlns="http://www.w3.org/2000/svg"
     width="50px" height="50px" viewBox="0 0 1179.000000 1280.000000"
     preserveAspectRatio="xMidYMid meet">
    <metadata>
        Created by potrace 1.15, written by Peter Selinger 2001-2017
    </metadata>
    <g transform="translate(0.000000,1280.000000) scale(0.100000,-0.100000)"
       fill="#312F30" stroke="none">
        <path d="M5720 12794 c-286 -35 -486 -92 -705 -201 -315 -157 -580 -390 -772
-678 -271 -407 -373 -855 -318 -1393 29 -279 111 -719 188 -1004 13 -49 22
-88 20 -88 -2 0 -57 40 -121 88 -241 182 -535 379 -737 495 -135 77 -364 183
-477 221 -808 269 -1709 -14 -2220 -697 -504 -675 -523 -1613 -47 -2308 l61
-88 -72 -81 c-269 -306 -431 -643 -497 -1036 -24 -147 -24 -466 0 -609 52
-300 157 -567 318 -806 465 -693 1326 -1021 2136 -815 643 164 1754 792 2468
1394 72 61 131 109 133 108 1 -2 -21 -45 -49 -97 -161 -296 -408 -818 -556
-1174 -416 -1004 -722 -2023 -952 -3170 -56 -275 -142 -757 -137 -762 5 -5
561 -91 565 -88 2 2 23 118 47 257 241 1408 640 2752 1166 3922 90 199 334
687 418 835 l53 95 39 -180 c195 -913 656 -2032 1065 -2587 95 -128 300 -332
421 -417 360 -254 745 -379 1169 -380 991 -1 1821 718 1968 1705 17 116 23
377 11 480 l-7 60 133 43 c590 192 1068 672 1259 1267 70 215 93 366 93 610 1
226 -13 336 -69 540 -186 676 -740 1218 -1422 1390 -262 65 -767 125 -1064
125 -53 0 -143 3 -202 6 l-105 7 91 70 c334 257 704 598 897 826 238 282 403
664 450 1041 15 122 12 361 -5 493 -151 1154 -1261 1932 -2395 1680 -95 -21
-259 -70 -320 -97 -11 -4 -25 10 -49 51 -97 164 -286 381 -441 506 -271 219
-595 364 -940 422 -91 16 -416 28 -490 19z"/>
    </g>
</svg>
